<?xml version="1.0" standalone="no"?>
<!DOCTYPE svg PUBLIC "-//W3C//DTD SVG 1.1//EN" "http://www.w3.org/Graphics/SVG/1.1/DTD/svg11.dtd" >
<svg xmlns="http://www.w3.org/2000/svg">
<metadata></metadata>
<defs>
<font id="fairviewregular" horiz-adv-x="651" >
<font-face units-per-em="2048" ascent="1536" descent="-512" />
<missing-glyph horiz-adv-x="337" />
<glyph unicode="&#xfb01;" horiz-adv-x="798" d="M29 885v127h121v241q0 60 42.5 103t102.5 43h270q60 0 103 -43t43 -103v-90h-146v113h-270v-264h418v-1012h-148v885h-270v-885h-145v885h-121z" />
<glyph unicode="&#xfb02;" horiz-adv-x="798" d="M29 885v127h121v241q0 60 42.5 103t102.5 43h168q59 0 102 -43v43h148v-1399h-148v885h-270v-885h-145v885h-121zM295 1012h270v264h-270v-264z" />
<glyph horiz-adv-x="2048" />
<glyph horiz-adv-x="2048" />
<glyph horiz-adv-x="682" />
<glyph unicode="&#xd;" horiz-adv-x="337" />
<glyph unicode=" "  horiz-adv-x="337" />
<glyph unicode="&#x09;" horiz-adv-x="337" />
<glyph unicode="&#xa0;" horiz-adv-x="337" />
<glyph unicode="!" horiz-adv-x="358" d="M98 0v207h162v-207h-162zM104 1348h150l-14 -979h-123z" />
<glyph unicode="&#x22;" horiz-adv-x="540" d="M70 938v410h135v-410h-135zM336 938v410h135v-410h-135z" />
<glyph unicode="#" horiz-adv-x="804" d="M37 303v109h143l53 321h-129v109h146l51 305h113l-52 -305h166l52 305h112l-51 -305h127v-109h-143l-54 -321h129v-109h-145l-49 -303h-115l49 303h-166l-49 -303h-112l49 303h-125zM293 412h166l53 321h-166z" />
<glyph unicode="$" horiz-adv-x="608" d="M66 133v191h149v-211h176v276l-297 516q-13 21 -20 45t-8 38v13v216q0 60 42.5 102.5t102.5 42.5h39v151h117v-151h28q61 0 103.5 -42.5t42.5 -102.5v-191h-150v211h-176v-250l299 -516q13 -22 19.5 -45.5t6.5 -35.5l1 -13v-244q0 -60 -42.5 -102.5t-103.5 -42.5h-28 v-174h-117v174h-39q-60 0 -102.5 42.5t-42.5 102.5z" />
<glyph unicode="%" horiz-adv-x="1122" d="M70 856v358q0 62 43 105t104 43h109q61 0 103 -43t42 -105v-358q0 -60 -42 -102.5t-103 -42.5h-109q-61 0 -104 42.5t-43 102.5zM197 817h149v436h-149v-436zM252 -20l493 1390h125l-493 -1390h-125zM651 133v359q0 61 43 104t105 43h108q61 0 103.5 -42.5t42.5 -104.5 v-359q0 -60 -42.5 -102.5t-103.5 -42.5h-108q-61 0 -104.5 42.5t-43.5 102.5zM778 94h150v436h-150v-436z" />
<glyph unicode="&#x26;" horiz-adv-x="708" d="M70 131v373q0 45 28 96l90 158l-45 100q-3 7 -8 19.5t-8 19.5t-6 17t-4.5 19.5t-1.5 20.5v265q0 60 42 101.5t101 41.5h176q60 0 102 -41.5t42 -101.5v-224h-138v244h-182v-309l227 -494l72 174h119l-121 -323l133 -287h-131l-63 125l-7 -16q-45 -121 -155 -121h-119 q-59 0 -101 41.5t-42 101.5zM209 111h145l64 155l-164 350l-45 -84v-421z" />
<glyph unicode="'" horiz-adv-x="274" d="M70 938v410h135v-410h-135z" />
<glyph unicode="(" horiz-adv-x="487" d="M98 662q0 237 58 469.5t170 431.5h149q-235 -390 -235 -901q0 -512 235 -902h-149q-113 204 -170.5 435.5t-57.5 466.5z" />
<glyph unicode=")" horiz-adv-x="487" d="M12 -240q236 392 236 902q0 509 -236 901h150q111 -199 169 -431.5t58 -469.5q0 -235 -57.5 -466.5t-169.5 -435.5h-150z" />
<glyph unicode="*" horiz-adv-x="643" d="M45 1094l43 135l176 -78l-14 197h143l-22 -193l182 76l45 -137l-190 -41l129 -148l-113 -84l-100 170l-101 -170l-114 84l127 144z" />
<glyph unicode="+" horiz-adv-x="733" d="M61 459v131h240v260h131v-260h240v-131h-240v-260h-131v260h-240z" />
<glyph unicode="," horiz-adv-x="333" d="M43 -193l82 400h149l-98 -400h-133z" />
<glyph unicode="-" horiz-adv-x="446" d="M61 520v131h324v-131h-324z" />
<glyph unicode="." horiz-adv-x="333" d="M86 0v207h162v-207h-162z" />
<glyph unicode="/" horiz-adv-x="598" d="M-18 -240l495 1803h139l-497 -1803h-137z" />
<glyph unicode="0" horiz-adv-x="645" d="M78 131v1088q0 60 41.5 101.5t101.5 41.5h201q60 0 102.5 -41.5t42.5 -101.5v-1088q0 -59 -42.5 -101t-102.5 -42h-201q-60 0 -101.5 42t-41.5 101zM227 113h191v1124h-191v-1124z" />
<glyph unicode="1" horiz-adv-x="432" d="M-8 1245l192 105h150v-1350h-150v1200l-133 -65z" />
<glyph unicode="2" horiz-adv-x="606" d="M66 0v254q0 47 26 94l299 514v377h-176v-235h-149v215q0 60 41.5 101.5t101.5 41.5h188q59 0 101.5 -41.5t42.5 -101.5v-342q0 -44 -29 -97l-297 -514v-141h309v-125h-458z" />
<glyph unicode="3" d="M66 1004v215q0 60 41.5 101.5t101.5 41.5h213q59 0 101 -41.5t42 -101.5v-416q0 -44 -28.5 -69.5t-51.5 -31.5q93 -31 93 -100v-459q0 -58 -42.5 -100.5t-101.5 -42.5h-217q-60 0 -101.5 42t-41.5 101v232h149v-250h205v506h-213v143h201v463h-201v-233h-149z" />
<glyph unicode="4" horiz-adv-x="669" d="M74 741v609h145v-637h215v637h150v-1350h-150v588h-211q-67 0 -108 44t-41 109z" />
<glyph unicode="5" horiz-adv-x="622" d="M74 131v240h149v-258h180v514h-180q-42 0 -73 16t-44.5 38.5t-21.5 44.5t-9 38l-1 16v570h454v-125h-309v-473h191q60 0 101.5 -43t41.5 -103v-475q0 -59 -41.5 -101t-101.5 -42h-193q-59 0 -101 42t-42 101z" />
<glyph unicode="6" horiz-adv-x="657" d="M78 131v1088q0 60 41.5 101.5t101.5 41.5h223q59 0 101.5 -41.5t42.5 -101.5v-215h-150v233h-211v-477h217q59 0 101.5 -42t42.5 -102v-485q0 -58 -42.5 -100.5t-101.5 -42.5h-223q-60 0 -101.5 42t-41.5 101zM227 113h215v522h-215v-522z" />
<glyph unicode="7" horiz-adv-x="520" d="M31 1223v127h465l-244 -1350h-141l206 1223h-286z" />
<glyph unicode="8" horiz-adv-x="657" d="M74 131v422q0 5 0.5 13.5t6.5 31.5t16 42t32 37.5t53 24.5q-48 11 -75 48.5t-30 69.5l-3 32v367q0 60 41.5 101.5t101.5 41.5h209q60 0 102.5 -41.5t42.5 -101.5v-367q0 -5 -0.5 -13.5t-6 -30.5t-15.5 -41t-31.5 -38t-50.5 -27q33 -6 57 -23t35 -38t17.5 -41t7.5 -34v-13 v-422q0 -59 -43 -101t-103 -42h-221q-60 0 -101.5 42t-41.5 101zM219 762h207v475h-207v-475zM223 113h211v530h-211v-530z" />
<glyph unicode="9" horiz-adv-x="657" d="M70 131v240h149v-258h211v475h-217q-60 0 -101.5 41.5t-41.5 101.5v488q0 60 41.5 101.5t101.5 41.5h223q59 0 101.5 -41.5t42.5 -101.5v-1088q0 -58 -42.5 -100.5t-101.5 -42.5h-223q-60 0 -101.5 42t-41.5 101zM215 713h215v524h-215v-524z" />
<glyph unicode=":" horiz-adv-x="358" d="M98 0v207h162v-207h-162zM98 797v207h162v-207h-162z" />
<glyph unicode=";" horiz-adv-x="358" d="M33 -193l82 400h149l-98 -400h-133zM102 797v207h162v-207h-162z" />
<glyph unicode="&#x3c;" horiz-adv-x="622" d="M49 526l352 400h189l-363 -400l363 -401h-189z" />
<glyph unicode="=" horiz-adv-x="774" d="M82 254v131h610v-131h-610zM82 664v131h610v-131h-610z" />
<glyph unicode="&#x3e;" horiz-adv-x="622" d="M33 125l362 401l-362 400h188l352 -400l-352 -401h-188z" />
<glyph unicode="?" horiz-adv-x="593" d="M53 1024v190q0 64 40.5 105t109.5 41h176q74 0 111.5 -44t37.5 -102v-337q0 -54 -28 -97l-138 -202l-8 -209h-129l-10 196q-3 51 27 94l141 203v373h-186v-211h-144zM211 0v207h162v-207h-162z" />
<glyph unicode="@" horiz-adv-x="1040" d="M94 61v1072q0 57 40 97t97 40h578q57 0 97 -40t40 -97v-865q0 -52 -25.5 -85t-74.5 -33h-60q-39 0 -69.5 21.5t-44.5 55.5q-12 -34 -43 -55.5t-70 -21.5h-123q-51 0 -86 34t-35 84v656q0 51 35 85.5t86 34.5h72q40 0 70.5 -20.5t42.5 -54.5l24 75h76v-788h113v920h-627 v-1158h649v-94h-625q-57 0 -97 40t-40 97zM440 256h152v682h-152v-682z" />
<glyph unicode="A" horiz-adv-x="669" d="M82 0v1204q0 60 42.5 103t102.5 43h215q60 0 103 -43t43 -103v-1204h-152v543h-205v-543h-149zM231 668h205v557h-205v-557z" />
<glyph unicode="B" horiz-adv-x="667" d="M86 0v1350h348q60 0 103 -43t43 -103v-399q0 -31 -17.5 -55t-34 -33t-28.5 -12q92 -31 92 -101v-459q0 -60 -43 -102.5t-103 -42.5h-360zM236 125h206v518h-206v-518zM236 766h194v459h-194v-459z" />
<glyph unicode="C" horiz-adv-x="645" d="M78 133v1084q0 60 42.5 102.5t102.5 42.5h221q60 0 102 -42.5t42 -102.5v-213h-150v233h-211v-1124h211v260h150v-240q0 -60 -42 -102.5t-102 -42.5h-221q-60 0 -102.5 42.5t-42.5 102.5z" />
<glyph unicode="D" horiz-adv-x="661" d="M86 0v1350h352q60 0 103 -43t43 -103v-1059q0 -60 -43 -102.5t-103 -42.5h-352zM236 125h198v1100h-198v-1100z" />
<glyph unicode="E" horiz-adv-x="550" d="M86 0v1350h424v-125h-274v-486h229v-127h-229v-487h274v-125h-424z" />
<glyph unicode="F" horiz-adv-x="542" d="M86 0v1350h426v-125h-276v-549h231v-127h-231v-549h-150z" />
<glyph unicode="G" horiz-adv-x="665" d="M78 133v1084q0 60 42.5 102.5t102.5 42.5h221q60 0 102 -42.5t42 -102.5v-213h-150v233h-211v-1124h230v434h-105v127h244v-541q0 -60 -41.5 -102.5t-101.5 -42.5h-230q-60 0 -102.5 42.5t-42.5 102.5z" />
<glyph unicode="H" horiz-adv-x="700" d="M86 0v1350h150v-600h229v600h149v-1350h-149v625h-229v-625h-150z" />
<glyph unicode="I" horiz-adv-x="321" d="M86 0v1350h150v-1350h-150z" />
<glyph unicode="J" horiz-adv-x="628" d="M61 145v408h138v-428h198v1100h-166v125h316v-1205q0 -60 -43 -102.5t-103 -42.5h-196q-60 0 -102 42.5t-42 102.5z" />
<glyph unicode="K" horiz-adv-x="671" d="M86 0v1350h150v-619h47l209 619h147l-211 -619h4q68 0 100.5 -35t38.5 -118l45 -578h-147l-45 606h-188v-606h-150z" />
<glyph unicode="L" horiz-adv-x="512" d="M86 0v1350h150v-1225h239v-125h-389z" />
<glyph unicode="M" horiz-adv-x="1038" d="M86 0v1350h150v-76q26 76 139 76h47q94 0 129 -76q15 40 45 58t84 18h131q60 0 102.5 -43t42.5 -103v-1204h-149v1223h-211v-1223h-150v1223h-210v-1223h-150z" />
<glyph unicode="N" horiz-adv-x="692" d="M86 0v1350h150v-76q15 39 42.5 57.5t75.5 18.5h111q60 0 102.5 -43t42.5 -103v-1204h-153v1223h-221v-1223h-150z" />
<glyph unicode="O" horiz-adv-x="667" d="M78 133v1084q0 60 42.5 102.5t102.5 42.5h221q60 0 103 -42.5t43 -102.5v-1084q0 -60 -43 -102.5t-103 -42.5h-221q-60 0 -102.5 42.5t-42.5 102.5zM229 113h211v1124h-211v-1124z" />
<glyph unicode="P" horiz-adv-x="641" d="M86 0v1350h338q60 0 102.5 -43t42.5 -103v-629q0 -60 -42.5 -102.5t-102.5 -42.5h-188v-430h-150zM236 561h184v662h-184v-662z" />
<glyph unicode="Q" horiz-adv-x="675" d="M78 133v1084q0 60 42.5 102.5t102.5 42.5h221q60 0 103 -42.5t43 -102.5v-1084q0 -29 -15 -63l66 -80l-104 -86l-74 86q-6 -2 -19 -2h-221q-60 0 -102.5 42.5t-42.5 102.5zM229 113h211v1124h-211v-1124z" />
<glyph unicode="R" d="M86 0v1350h348q60 0 103 -43t43 -103v-514q0 -42 -22 -77t-58 -54l110 -559h-155l-101 543h-118v-543h-150zM236 662h194v561h-194v-561z" />
<glyph unicode="S" horiz-adv-x="608" d="M66 133v191h149v-211h176v276l-297 516q-13 21 -20 45t-8 38v13v216q0 60 42.5 102.5t102.5 42.5h184q61 0 103.5 -42.5t42.5 -102.5v-191h-150v211h-176v-250l299 -516q13 -22 19.5 -45.5t6.5 -35.5l1 -13v-244q0 -60 -42.5 -102.5t-103.5 -42.5h-184q-60 0 -102.5 42.5 t-42.5 102.5z" />
<glyph unicode="T" horiz-adv-x="536" d="M31 1223v127h475v-127h-162v-1223h-151v1223h-162z" />
<glyph unicode="U" horiz-adv-x="673" d="M82 145v1205h149v-1225h211v1225h150v-1205q0 -60 -43 -102.5t-103 -42.5h-221q-60 0 -101.5 42.5t-41.5 102.5z" />
<glyph unicode="V" horiz-adv-x="643" d="M33 1350h149l140 -1135l137 1135h151l-190 -1350h-193z" />
<glyph unicode="W" horiz-adv-x="964" d="M82 145v1205h154v-1223h174v1223h147v-1223h174v1223h152v-1205q0 -60 -42 -102.5t-102 -42.5h-155q-39 0 -66 31.5t-35 64.5q-10 -36 -36 -66t-70 -30h-150q-60 0 -102.5 42.5t-42.5 102.5z" />
<glyph unicode="X" horiz-adv-x="600" d="M12 0l213 692l-200 658h141l141 -482l142 482h143l-213 -695l201 -655h-144l-139 483l-141 -483h-144z" />
<glyph unicode="Y" horiz-adv-x="657" d="M76 145v230h149v-250h199v450h-203q-60 0 -102.5 42t-42.5 102v631h149v-650h199v650h151v-1205q0 -60 -42.5 -102.5t-102.5 -42.5h-209q-60 0 -102.5 42.5t-42.5 102.5z" />
<glyph unicode="Z" horiz-adv-x="530" d="M16 0l314 1223h-267v127h451l-317 -1225h284v-125h-465z" />
<glyph unicode="[" horiz-adv-x="475" d="M123 -86v1495q0 64 39 109t110 45h154v-125h-166v-1553h166v-125h-154q-71 0 -110 45t-39 109z" />
<glyph unicode="\" horiz-adv-x="598" d="M-18 1563h139l495 -1803h-137z" />
<glyph unicode="]" horiz-adv-x="475" d="M49 -115h166v1553h-166v125h154q71 0 110 -45t39 -109v-1495q0 -64 -39 -109t-110 -45h-154v125z" />
<glyph unicode="^" horiz-adv-x="675" d="M49 862l242 488h94l242 -488h-146l-143 322l-143 -322h-146z" />
<glyph unicode="_" horiz-adv-x="415" d="M-8 -61h432v-95h-432v95z" />
<glyph unicode="`" horiz-adv-x="520" d="M123 1337h158l114 -200h-133z" />
<glyph unicode="a" d="M72 145v287q0 60 42.5 103t102.5 43h94q79 0 115 -52v357h-209v-178h-145v161q0 60 42.5 103t102.5 43h211q60 0 102.5 -43t42.5 -103v-866h-356q-60 0 -102.5 42.5t-42.5 102.5zM219 127h207v324h-207v-324z" />
<glyph unicode="b" horiz-adv-x="661" d="M86 0v1399h145v-455q39 68 125 68h84q61 0 104.5 -43t43.5 -103v-721q0 -60 -43.5 -102.5t-104.5 -42.5h-354zM231 127h209v756h-209v-756z" />
<glyph unicode="c" horiz-adv-x="641" d="M74 145v721q0 60 43 103t104 43h209q61 0 103 -43t42 -103v-182h-145v199h-209v-756h209v190h145v-172q0 -60 -42 -102.5t-103 -42.5h-209q-61 0 -104 42.5t-43 102.5z" />
<glyph unicode="d" horiz-adv-x="661" d="M74 145v721q0 60 42.5 103t102.5 43h107q68 0 102 -39v426h147v-1399h-356q-60 0 -102.5 42.5t-42.5 102.5zM221 127h207v756h-207v-756z" />
<glyph unicode="e" horiz-adv-x="645" d="M74 145v721q0 60 42.5 103t102.5 43h211q60 0 102.5 -43t42.5 -103v-303q0 -61 -42.5 -104t-102.5 -43h-211v-289h209v147h147v-129q0 -60 -42.5 -102.5t-102.5 -42.5h-211q-60 0 -102.5 42.5t-42.5 102.5zM219 545h209v338h-209v-338z" />
<glyph unicode="f" horiz-adv-x="477" d="M20 885v127h121v241q0 60 43 103t103 43h182v-127h-182v-260h170v-127h-170v-885h-146v885h-121z" />
<glyph unicode="g" horiz-adv-x="661" d="M74 -80h145v-98h209v270q-37 -65 -125 -65h-84q-61 0 -103 42.5t-42 102.5v694q0 60 42 103t103 43h356v-1172q0 -61 -42.5 -103t-104.5 -42h-209q-61 0 -103 41.5t-42 103.5v80zM219 156h209v727h-209v-727z" />
<glyph unicode="h" horiz-adv-x="669" d="M86 0v1399h147v-455q35 68 123 68h86q60 0 103 -43t43 -103v-866h-146v883h-209v-883h-147z" />
<glyph unicode="i" horiz-adv-x="319" d="M76 1149v176h168v-176h-168zM86 0v1012h147v-1012h-147z" />
<glyph unicode="j" horiz-adv-x="335" d="M-37 -178h141v1190h146v-1172q0 -61 -43 -103t-103 -42h-141v127zM88 1149v176h168v-176h-168z" />
<glyph unicode="k" horiz-adv-x="636" d="M86 0v1399h145v-805h52l176 418h145l-180 -420q108 -12 123 -154l45 -438h-146l-45 471h-170v-471h-145z" />
<glyph unicode="l" horiz-adv-x="319" d="M86 0v1399h147v-1399h-147z" />
<glyph unicode="m" horiz-adv-x="1011" d="M86 0v1012h145v-78q26 78 142 78h37q93 0 131 -78q15 41 45 59.5t84 18.5h114q60 0 103 -43t43 -103v-866h-146v883h-202v-883h-148v883h-203v-883h-145z" />
<glyph unicode="n" horiz-adv-x="679" d="M86 0v1012h145v-68q39 68 125 68h97q60 0 102.5 -43t42.5 -103v-866h-147v883h-220v-883h-145z" />
<glyph unicode="o" horiz-adv-x="649" d="M74 145v719q0 62 43 105t104 43h209q61 0 103 -43t42 -105v-719q0 -60 -42 -102.5t-103 -42.5h-209q-61 0 -104 42.5t-43 102.5zM221 127h209v756h-209v-756z" />
<glyph unicode="p" horiz-adv-x="661" d="M86 -305v1317h356q60 0 103 -43.5t43 -104.5v-719q0 -60 -43 -102.5t-103 -42.5h-86q-89 0 -123 66v-371h-147zM233 127h209v756h-209v-756z" />
<glyph unicode="q" horiz-adv-x="661" d="M74 145v719q0 61 42.5 104.5t102.5 43.5h356v-1317h-147v371q-34 -66 -123 -66h-86q-60 0 -102.5 42.5t-42.5 102.5zM219 127h209v756h-209v-756z" />
<glyph unicode="r" horiz-adv-x="477" d="M86 0v1012h147v-78q36 78 134 78h90v-129h-224v-883h-147z" />
<glyph unicode="s" horiz-adv-x="602" d="M66 145v131h147v-149h178v190l-287 295q-19 20 -26.5 39.5t-7.5 55.5v157q0 62 43 105t104 43h174q60 0 103 -43.5t43 -104.5v-129h-146v148h-174v-191l289 -295q31 -34 31 -80v-172q0 -60 -43 -102.5t-103 -42.5h-178q-61 0 -104 42.5t-43 102.5z" />
<glyph unicode="t" horiz-adv-x="475" d="M20 885v127h130v225h147v-225h158v-127h-158v-885h-147v885h-130z" />
<glyph unicode="u" horiz-adv-x="679" d="M82 145v867h147v-885h217v885h148v-1012h-129l-10 80q-36 -80 -138 -80h-90q-60 0 -102.5 42.5t-42.5 102.5z" />
<glyph unicode="v" horiz-adv-x="614" d="M18 1012h148l143 -828l137 828h150l-201 -1012h-170z" />
<glyph unicode="w" horiz-adv-x="958" d="M82 145v867h149v-885h175v885h147v-885h178v885h146v-867q0 -60 -43 -102.5t-103 -42.5h-149q-41 0 -70 33.5t-33 62.5q-9 -33 -36 -64.5t-70 -31.5h-146q-60 0 -102.5 42.5t-42.5 102.5z" />
<glyph unicode="x" horiz-adv-x="589" d="M6 0l219 522l-192 490h143l123 -314l133 314h143l-204 -490l207 -522h-144l-137 346l-145 -346h-146z" />
<glyph unicode="y" horiz-adv-x="661" d="M82 -59h147v-117h199v268h-199q-61 0 -104 43t-43 103v774h149v-793h197v793h147v-1170q0 -62 -42 -104.5t-103 -42.5h-201q-61 0 -104 42.5t-43 104.5v99z" />
<glyph unicode="z" horiz-adv-x="530" d="M20 0l295 883h-254v129h449l-305 -887h282v-125h-467z" />
<glyph unicode="{" horiz-adv-x="528" d="M41 594v135h135v680q0 64 39.5 109t110.5 45h153v-125h-166v-635q0 -48 -22.5 -86t-63.5 -55q41 -18 63.5 -57t22.5 -85v-635h166v-125h-153q-71 0 -110.5 45t-39.5 109v680h-135z" />
<glyph unicode="|" horiz-adv-x="407" d="M135 -240v1803h137v-1803h-137z" />
<glyph unicode="}" horiz-adv-x="528" d="M49 -115h166v635q0 46 22.5 85t63.5 57q-41 17 -63.5 55t-22.5 86v635h-166v125h154q71 0 110 -45t39 -109v-680h135v-135h-135v-680q0 -64 -39 -109t-110 -45h-154v125z" />
<glyph unicode="~" horiz-adv-x="759" d="M72 451q0 266 174 266q45 0 87 -19t68.5 -42.5t58 -42.5t56.5 -19q21 0 34 10.5t18 31t6 34t1 35.5h113q0 -261 -153 -261q-41 0 -81.5 19t-68.5 41.5t-63.5 41.5t-67.5 19q-20 0 -33.5 -7t-20 -16t-10 -27t-4 -29.5t-0.5 -34.5h-114z" />
<glyph unicode="&#xa1;" horiz-adv-x="358" d="M98 797v207h162v-207h-162zM104 -344l13 979h123l14 -979h-150z" />
<glyph unicode="&#xa2;" horiz-adv-x="641" d="M74 350v619q0 60 43 102.5t104 42.5h43v186h117v-186h49q61 0 103 -42.5t42 -102.5v-183h-139v199h-221v-653h221v190h139v-172q0 -60 -42 -102.5t-103 -42.5h-49v-209h-117v209h-43q-61 0 -104 42.5t-43 102.5z" />
<glyph unicode="&#xa3;" horiz-adv-x="546" d="M49 698v127h109v379q0 60 42.5 103t102.5 43h182v-127h-182v-398h191v-127h-191v-573h207v-125h-455v125h103v573h-109z" />
<glyph unicode="&#xa5;" horiz-adv-x="663" d="M86 719v631h141v-650h209v650h142v-631q0 -60 -43 -102t-103 -42h-29v-86h162v-110h-162v-119h162v-110h-162v-150h-143v150h-162v110h162v119h-162v110h162v86h-29q-60 0 -102.5 42t-42.5 102z" />
<glyph unicode="&#xa6;" horiz-adv-x="407" d="M135 -240v873h137v-873h-137zM135 803v760h137v-760h-137z" />
<glyph unicode="&#xa7;" horiz-adv-x="645" d="M66 76v127h141v-146h172v185l-277 284q-19 19 -26.5 37t-7.5 53v199q0 35 7.5 53t26.5 37l88 92l-34 35q-29 29 -29 78v166q0 58 41 98.5t98 40.5h172q60 0 101 -40t41 -99v-127h-142v145h-172v-184l277 -285q19 -19 27 -37.5t8 -52.5v-198q0 -34 -8 -53t-27 -38l-88 -92 l34 -35q29 -29 29 -77v-166q0 -58 -41 -98.5t-98 -40.5h-172q-60 0 -100.5 40t-40.5 99zM211 602l149 -153l74 73v228l-151 151l-72 -72v-227z" />
<glyph unicode="&#xa8;" d="M139 1137v166h129v-166h-129zM369 1137v166h129v-166h-129z" />
<glyph unicode="&#xa9;" horiz-adv-x="1075" d="M98 68v1194q0 57 40.5 97t97.5 40h604q57 0 97 -40t40 -97v-1194q0 -57 -40 -97.5t-97 -40.5h-604q-57 0 -97.5 40.5t-40.5 97.5zM219 33h637v1263h-637v-1263zM344 274v779q0 51 35 86t86 35h164q51 0 86 -35t35 -86v-226h-138v232h-135v-789h135v232h138v-228 q0 -50 -35 -84t-86 -34h-164q-51 0 -86 34t-35 84z" />
<glyph unicode="&#xaa;" horiz-adv-x="583" d="M66 946v94q0 60 42.5 103t102.5 43h37q42 0 78 -14.5t51 -36.5v196h-170v-90h-131v59q0 60 42.5 103t102.5 43h144q60 0 102.5 -43t42.5 -103v-499h-299q-60 0 -102.5 42.5t-42.5 102.5zM199 913h178v152h-178v-152z" />
<glyph unicode="&#xab;" horiz-adv-x="768" d="M45 522l197 340h159l-198 -340l198 -340h-159zM367 522l196 340h160l-199 -340l199 -340h-160z" />
<glyph unicode="&#xac;" horiz-adv-x="1024" />
<glyph unicode="&#xad;" horiz-adv-x="733" d="M61 459v131h611v-131h-611z" />
<glyph unicode="&#xae;" horiz-adv-x="1075" d="M98 68v1194q0 57 40.5 97t97.5 40h604q57 0 97 -40t40 -97v-1194q0 -57 -40 -97.5t-97 -40.5h-604q-57 0 -97.5 40.5t-40.5 97.5zM219 33h637v1263h-637v-1263zM344 158v1016h295q44 0 76.5 -32.5t32.5 -78.5v-385q0 -31 -16.5 -58t-43.5 -42l84 -420h-133l-76 407h-90 v-407h-129zM473 672h148v389h-148v-389z" />
<glyph unicode="&#xaf;" horiz-adv-x="1024" />
<glyph unicode="&#xb0;" horiz-adv-x="544" d="M66 999v277q0 62 43 104.5t104 42.5h121q61 0 103 -42.5t42 -104.5v-277q0 -60 -42 -102.5t-103 -42.5h-121q-61 0 -104 42.5t-43 102.5zM184 961h178v354h-178v-354z" />
<glyph unicode="&#xb1;" horiz-adv-x="794" d="M92 41v131h610v-131h-610zM92 459v131h240v219h131v-219h239v-131h-239v-219h-131v219h-240z" />
<glyph unicode="&#xb2;" horiz-adv-x="555" d="M82 801v168q0 43 29 61l235 166v139h-135v-125h-129v133q0 50 28 76.5t74 26.5h189q45 0 73.5 -27t28.5 -76v-141q0 -53 -55 -94l-199 -143v-52h238v-112h-377z" />
<glyph unicode="&#xb3;" horiz-adv-x="559" d="M82 903v103h129v-95h135v160h-133v105h133v159h-135v-86h-129v94q0 50 28 76.5t74 26.5h189q45 0 73.5 -27t28.5 -76v-114q0 -37 -17 -62t-46 -34q29 -9 46 -34.5t17 -62.5v-133q0 -49 -28.5 -75.5t-73.5 -26.5h-189q-46 0 -74 26.5t-28 75.5z" />
<glyph unicode="&#xb4;" horiz-adv-x="501" d="M100 1137l115 200h158l-140 -200h-133z" />
<glyph unicode="&#xb5;" horiz-adv-x="684" d="M86 -305v1317h147v-885h218v885h147v-1012h-129l-10 80q-36 -80 -137 -80h-29q-33 0 -60 12v-317h-147z" />
<glyph unicode="&#xb6;" horiz-adv-x="753" d="M78 825v445q0 60 42.5 102.5t102.5 42.5h445v-1478h-133v1341h-93v-1341h-133v743h-86q-60 0 -102.5 42.5t-42.5 102.5z" />
<glyph unicode="&#xb7;" horiz-adv-x="366" d="M102 410v206h162v-206h-162z" />
<glyph unicode="&#xb8;" horiz-adv-x="481" d="M86 -213l119 207h133l-94 -207h-158z" />
<glyph unicode="&#xb9;" horiz-adv-x="450" d="M49 1370l166 76h129v-645h-129v516l-111 -51z" />
<glyph unicode="&#xba;" horiz-adv-x="587" d="M72 946v354q0 60 42.5 103t102.5 43h154q60 0 102.5 -43t42.5 -103v-354q0 -60 -42.5 -102.5t-102.5 -42.5h-154q-60 0 -102.5 42.5t-42.5 102.5zM203 915h182v416h-182v-416z" />
<glyph unicode="&#xbb;" horiz-adv-x="768" d="M45 182l199 340l-199 340h160l196 -340l-196 -340h-160zM367 182l198 340l-198 340h159l197 -340l-197 -340h-159z" />
<glyph unicode="&#xbc;" horiz-adv-x="1222" d="M49 1274l166 76h129v-645h-129v516l-111 -52zM174 0l629 1350h137l-631 -1350h-135zM717 358v287h129v-278h135v278h129v-645h-129v256h-162q-46 0 -74 26.5t-28 75.5z" />
<glyph unicode="&#xbd;" horiz-adv-x="1196" d="M49 1274l166 76h129v-645h-129v516l-111 -52zM174 0l629 1350h137l-631 -1350h-135zM713 0v168q0 44 28 61l236 166v140h-135v-125h-129v133q0 49 28 75.5t74 26.5h189q45 0 73.5 -26.5t28.5 -75.5v-142q0 -53 -55 -94l-199 -143v-51h238v-113h-377z" />
<glyph unicode="&#xbe;" horiz-adv-x="1302" d="M102 807v102h129v-94h136v160h-134v104h134v160h-136v-86h-129v94q0 49 28.5 76t74.5 27h188q45 0 74 -27t29 -76v-114q0 -37 -17.5 -62.5t-46.5 -34.5q64 -21 64 -96v-133q0 -49 -29 -75.5t-74 -26.5h-188q-46 0 -74.5 26.5t-28.5 75.5zM260 0l629 1350h137l-631 -1350 h-135zM803 358v287h129v-278h135v278h129v-645h-129v256h-162q-46 0 -74 26.5t-28 75.5z" />
<glyph unicode="&#xbf;" horiz-adv-x="598" d="M66 127v-338q0 -58 37.5 -101.5t111.5 -43.5h176q69 0 109.5 40.5t40.5 104.5v191h-144v-211h-186v372l141 203q30 43 27 94l-10 197h-129l-9 -209l-137 -203q-28 -43 -28 -96zM221 797v207h162v-207h-162z" />
<glyph unicode="&#xc0;" horiz-adv-x="669" d="M82 0v1204q0 60 42.5 103t102.5 43h215q60 0 103 -43t43 -103v-1204h-152v543h-205v-543h-149zM147 1645h158l115 -201h-133zM231 668h205v557h-205v-557z" />
<glyph unicode="&#xc1;" horiz-adv-x="669" d="M82 0v1204q0 60 42.5 103t102.5 43h215q60 0 103 -43t43 -103v-1204h-152v543h-205v-543h-149zM231 668h205v557h-205v-557zM248 1444l114 201h158l-139 -201h-133z" />
<glyph unicode="&#xc2;" horiz-adv-x="669" d="M82 0v1204q0 60 42.5 103t102.5 43h215q60 0 103 -43t43 -103v-1204h-152v543h-205v-543h-149zM133 1444l139 201h129l140 -201h-129l-76 106l-74 -106h-129zM231 668h205v557h-205v-557z" />
<glyph unicode="&#xc3;" horiz-adv-x="669" d="M82 0v1204q0 60 42.5 103t102.5 43h215q60 0 103 -43t43 -103v-1204h-152v543h-205v-543h-149zM137 1436q0 176 117 176q37 0 69 -18t59 -36t50 -18q14 0 22.5 5.5t12 16.5t4 19t0.5 23h76q0 -172 -105 -172q-40 0 -94.5 34.5t-89.5 34.5q-16 0 -26 -4t-13.5 -14.5 t-4.5 -19t-1 -27.5h-76zM231 668h205v557h-205v-557z" />
<glyph unicode="&#xc4;" horiz-adv-x="669" d="M82 0v1204q0 60 42.5 103t102.5 43h215q60 0 103 -43t43 -103v-1204h-152v543h-205v-543h-149zM158 1438v166h129v-166h-129zM231 668h205v557h-205v-557zM387 1438v166h129v-166h-129z" />
<glyph unicode="&#xc5;" horiz-adv-x="669" d="M82 0v1204q0 60 42.5 103t102.5 43h215q60 0 103 -43t43 -103v-1204h-152v543h-205v-543h-149zM184 1542v39q0 53 30.5 84t82.5 31h80q52 0 82 -31t30 -84v-39q0 -53 -30 -84t-82 -31h-80q-52 0 -82.5 31t-30.5 84zM231 668h205v557h-205v-557zM283 1499h108v125h-108 v-125z" />
<glyph unicode="&#xc6;" horiz-adv-x="899" d="M82 0v1204q0 60 42.5 103t102.5 43h631v-125h-272v-486h227v-127h-227v-487h272v-125h-422v543h-205v-543h-149zM231 668h205v557h-205v-557z" />
<glyph unicode="&#xc7;" horiz-adv-x="645" d="M78 133v1084q0 60 42.5 102.5t102.5 42.5h221q60 0 102 -42.5t42 -102.5v-213h-150v233h-211v-1124h211v260h150v-240q0 -60 -42 -102.5t-102 -42.5h-34l-91 -201h-157l114 201h-53q-60 0 -102.5 42.5t-42.5 102.5z" />
<glyph unicode="&#xc8;" horiz-adv-x="550" d="M86 0h424v125h-274v487h229v127h-229v486h274v125h-424v-1350zM119 1645h157l115 -201h-133z" />
<glyph unicode="&#xc9;" horiz-adv-x="550" d="M86 0h424v125h-274v487h229v127h-229v486h274v125h-424v-1350zM213 1444l115 201h157l-139 -201h-133z" />
<glyph unicode="&#xca;" horiz-adv-x="550" d="M86 0h424v125h-274v487h229v127h-229v486h274v125h-424v-1350zM98 1444l140 201h129l139 -201h-129l-76 106l-74 -106h-129z" />
<glyph unicode="&#xcb;" horiz-adv-x="550" d="M86 0h424v125h-274v487h229v127h-229v486h274v125h-424v-1350zM119 1438v166h129v-166h-129zM348 1438v166h129v-166h-129z" />
<glyph unicode="&#xcc;" horiz-adv-x="321" d="M-31 1645h158l115 -201h-133zM86 0h150v1350h-150v-1350z" />
<glyph unicode="&#xcd;" horiz-adv-x="321" d="M78 1444l115 201h157l-139 -201h-133zM86 0h150v1350h-150v-1350z" />
<glyph unicode="&#xce;" horiz-adv-x="321" d="M-43 1444l139 201h129l140 -201h-129l-76 106l-74 -106h-129zM86 0h150v1350h-150v-1350z" />
<glyph unicode="&#xcf;" horiz-adv-x="321" d="M-18 1438v166h129v-166h-129zM86 0h150v1350h-150v-1350zM211 1438v166h129v-166h-129z" />
<glyph unicode="&#xd0;" horiz-adv-x="679" d="M37 639v131h67v580h353q60 0 102.5 -43t42.5 -103v-1059q0 -60 -42.5 -102.5t-102.5 -42.5h-353v639h-67zM254 125h199v1100h-199v-455h123v-131h-123v-514z" />
<glyph unicode="&#xd1;" horiz-adv-x="692" d="M86 0v1350h150v-76q15 39 42.5 57.5t75.5 18.5h111q60 0 102.5 -43t42.5 -103v-1204h-153v1223h-221v-1223h-150zM135 1436q0 176 117 176q37 0 69 -18t59 -36t50 -18q14 0 22.5 5.5t12 16.5t4 19t0.5 23h76q0 -172 -105 -172q-40 0 -94.5 34.5t-89.5 34.5q-16 0 -26 -4 t-13.5 -14.5t-4.5 -19t-1 -27.5h-76z" />
<glyph unicode="&#xd2;" horiz-adv-x="667" d="M78 133v1084q0 60 42.5 102.5t102.5 42.5h221q60 0 103 -42.5t43 -102.5v-1084q0 -60 -43 -102.5t-103 -42.5h-221q-60 0 -102.5 42.5t-42.5 102.5zM137 1645h158l115 -201h-134zM229 113h211v1124h-211v-1124z" />
<glyph unicode="&#xd3;" horiz-adv-x="667" d="M78 133v1084q0 60 42.5 102.5t102.5 42.5h221q60 0 103 -42.5t43 -102.5v-1084q0 -60 -43 -102.5t-103 -42.5h-221q-60 0 -102.5 42.5t-42.5 102.5zM229 113h211v1124h-211v-1124zM246 1444l114 201h158l-139 -201h-133z" />
<glyph unicode="&#xd4;" horiz-adv-x="667" d="M78 133v1084q0 60 42.5 102.5t102.5 42.5h221q60 0 103 -42.5t43 -102.5v-1084q0 -60 -43 -102.5t-103 -42.5h-221q-60 0 -102.5 42.5t-42.5 102.5zM131 1444l139 201h129l140 -201h-129l-76 106l-74 -106h-129zM229 113h211v1124h-211v-1124z" />
<glyph unicode="&#xd5;" horiz-adv-x="667" d="M78 133v1084q0 60 42.5 102.5t102.5 42.5h221q60 0 103 -42.5t43 -102.5v-1084q0 -60 -43 -102.5t-103 -42.5h-221q-60 0 -102.5 42.5t-42.5 102.5zM129 1436q0 176 117 176q37 0 69 -18t59 -36t50 -18q14 0 22.5 5.5t12 16.5t4 19t0.5 23h76q0 -172 -105 -172 q-40 0 -94.5 34.5t-89.5 34.5q-16 0 -26 -4t-13.5 -14.5t-4.5 -19t-1 -27.5h-76zM229 113h211v1124h-211v-1124z" />
<glyph unicode="&#xd6;" horiz-adv-x="667" d="M78 133v1084q0 60 42.5 102.5t102.5 42.5h221q60 0 103 -42.5t43 -102.5v-1084q0 -60 -43 -102.5t-103 -42.5h-221q-60 0 -102.5 42.5t-42.5 102.5zM156 1438v166h129v-166h-129zM229 113h211v1124h-211v-1124zM385 1438v166h129v-166h-129z" />
<glyph unicode="&#xd7;" horiz-adv-x="751" d="M72 315l209 209l-209 209l94 94l209 -209l211 209l94 -94l-211 -209l211 -209l-94 -94l-211 209l-209 -209z" />
<glyph unicode="&#xd8;" horiz-adv-x="667" d="M78 133v1084q0 60 42.5 102.5t102.5 42.5h221q60 0 103 -42.5t43 -102.5v-1084q0 -60 -43 -102.5t-103 -42.5h-221q-60 0 -102.5 42.5t-42.5 102.5zM229 113h211v655l-211 -420v-235zM229 575l211 422v240h-211v-662z" />
<glyph unicode="&#xd9;" horiz-adv-x="673" d="M82 145v1205h149v-1225h211v1225h150v-1205q0 -60 -43 -102.5t-103 -42.5h-221q-60 0 -101.5 42.5t-41.5 102.5zM147 1645h158l115 -201h-133z" />
<glyph unicode="&#xda;" horiz-adv-x="673" d="M82 145v1205h149v-1225h211v1225h150v-1205q0 -60 -43 -102.5t-103 -42.5h-221q-60 0 -101.5 42.5t-41.5 102.5zM256 1444l115 201h157l-139 -201h-133z" />
<glyph unicode="&#xdb;" horiz-adv-x="673" d="M82 145v1205h149v-1225h211v1225h150v-1205q0 -60 -43 -102.5t-103 -42.5h-221q-60 0 -101.5 42.5t-41.5 102.5zM133 1444l139 201h129l140 -201h-129l-76 106l-74 -106h-129z" />
<glyph unicode="&#xdc;" horiz-adv-x="673" d="M82 145v1205h149v-1225h211v1225h150v-1205q0 -60 -43 -102.5t-103 -42.5h-221q-60 0 -101.5 42.5t-41.5 102.5zM158 1438v166h129v-166h-129zM387 1438v166h129v-166h-129z" />
<glyph unicode="&#xdd;" horiz-adv-x="657" d="M76 145v230h149v-250h199v450h-203q-60 0 -102.5 42t-42.5 102v631h149v-650h199v650h151v-1205q0 -60 -42.5 -102.5t-102.5 -42.5h-209q-60 0 -102.5 42.5t-42.5 102.5zM233 1444l115 201h158l-139 -201h-134z" />
<glyph unicode="&#xde;" horiz-adv-x="641" d="M86 0v1350h150v-209h188q60 0 102.5 -43t42.5 -103v-628q0 -60 -42.5 -103t-102.5 -43h-188v-221h-150zM236 352h184v662h-184v-662z" />
<glyph unicode="&#xdf;" horiz-adv-x="729" d="M29 885v127h121v387h348q60 0 102.5 -43t42.5 -103v-440q0 -43 -28.5 -69t-51.5 -31q92 -37 92 -101v-458q0 -3 -0.5 -8.5t-3 -21.5t-7.5 -30.5t-16.5 -32.5t-26.5 -30.5t-39.5 -21.5t-55.5 -9h-135v125h139v526h-121v123h109v498h-203v-1272h-145v885h-121z" />
<glyph unicode="&#xe0;" d="M72 145v287q0 60 42.5 103t102.5 43h94q79 0 115 -52v357h-209v-178h-145v161q0 60 42.5 103t102.5 43h211q60 0 102.5 -43t42.5 -103v-866h-356q-60 0 -102.5 42.5t-42.5 102.5zM141 1337h158l115 -200h-133zM219 127h207v324h-207v-324z" />
<glyph unicode="&#xe1;" d="M72 145v287q0 60 42.5 103t102.5 43h94q79 0 115 -52v357h-209v-178h-145v161q0 60 42.5 103t102.5 43h211q60 0 102.5 -43t42.5 -103v-866h-356q-60 0 -102.5 42.5t-42.5 102.5zM219 127h207v324h-207v-324zM240 1137l114 200h158l-139 -200h-133z" />
<glyph unicode="&#xe2;" d="M72 145v287q0 60 42.5 103t102.5 43h94q79 0 115 -52v357h-209v-178h-145v161q0 60 42.5 103t102.5 43h211q60 0 102.5 -43t42.5 -103v-866h-356q-60 0 -102.5 42.5t-42.5 102.5zM121 1137l139 200h129l139 -200h-129l-75 106l-74 -106h-129zM219 127h207v324h-207v-324z " />
<glyph unicode="&#xe3;" d="M72 145v287q0 60 42.5 103t102.5 43h94q79 0 115 -52v357h-209v-178h-145v161q0 60 42.5 103t102.5 43h211q60 0 102.5 -43t42.5 -103v-866h-356q-60 0 -102.5 42.5t-42.5 102.5zM121 1130q0 177 117 177q37 0 69 -18t59 -36t50 -18q14 0 22.5 5t12 16t4 19t0.5 23h75 q0 -172 -104 -172q-40 0 -94.5 35t-89.5 35q-21 0 -31.5 -9.5t-12 -20.5t-1.5 -36h-76zM219 127h207v324h-207v-324z" />
<glyph unicode="&#xe4;" d="M72 145v287q0 60 42.5 103t102.5 43h94q79 0 115 -52v357h-209v-178h-145v161q0 60 42.5 103t102.5 43h211q60 0 102.5 -43t42.5 -103v-866h-356q-60 0 -102.5 42.5t-42.5 102.5zM147 1137v166h129v-166h-129zM219 127h207v324h-207v-324zM377 1137v166h129v-166h-129z " />
<glyph unicode="&#xe5;" d="M72 145v287q0 60 42.5 103t102.5 43h94q79 0 115 -52v357h-209v-178h-145v161q0 60 42.5 103t102.5 43h211q60 0 102.5 -43t42.5 -103v-866h-356q-60 0 -102.5 42.5t-42.5 102.5zM172 1233v39q0 53 30.5 83.5t82.5 30.5h80q52 0 82 -30.5t30 -83.5v-39q0 -53 -30 -84 t-82 -31h-80q-52 0 -82.5 31t-30.5 84zM219 127h207v324h-207v-324zM270 1190h109v125h-109v-125z" />
<glyph unicode="&#xe6;" horiz-adv-x="997" d="M72 145v287q0 60 42.5 103t102.5 43h94q79 0 115 -52v357h-209v-178h-145v161q0 60 42.5 103t102.5 43h162q45 0 81.5 -25t51.5 -65q18 40 54.5 65t80.5 25h135q60 0 103 -43t43 -103v-303q0 -61 -43 -104t-103 -43h-209v-289h207v147h148v-129q0 -60 -43 -102.5 t-103 -42.5h-565q-60 0 -102.5 42.5t-42.5 102.5zM219 127h207v324h-207v-324zM571 883q2 -6 2 -17v-321h207v338h-209z" />
<glyph unicode="&#xe7;" horiz-adv-x="641" d="M74 145v721q0 60 43 103t104 43h209q61 0 103 -43t42 -103v-182h-145v199h-209v-756h209v190h145v-172q0 -60 -42 -102.5t-103 -42.5h-209q-61 0 -104 42.5t-43 102.5zM145 -213l119 207h133l-94 -207h-158z" />
<glyph unicode="&#xe8;" horiz-adv-x="645" d="M74 145v721q0 60 42.5 103t102.5 43h211q60 0 102.5 -43t42.5 -103v-303q0 -61 -42.5 -104t-102.5 -43h-211v-289h209v147h147v-129q0 -60 -42.5 -102.5t-102.5 -42.5h-211q-60 0 -102.5 42.5t-42.5 102.5zM133 1337h158l115 -200h-134zM219 545h209v338h-209v-338z" />
<glyph unicode="&#xe9;" horiz-adv-x="645" d="M74 145v721q0 60 42.5 103t102.5 43h211q60 0 102.5 -43t42.5 -103v-303q0 -61 -42.5 -104t-102.5 -43h-211v-289h209v147h147v-129q0 -60 -42.5 -102.5t-102.5 -42.5h-211q-60 0 -102.5 42.5t-42.5 102.5zM219 545h209v338h-209v-338zM233 1137l115 200h158l-139 -200 h-134z" />
<glyph unicode="&#xea;" horiz-adv-x="645" d="M74 145v721q0 60 42.5 103t102.5 43h211q60 0 102.5 -43t42.5 -103v-303q0 -61 -42.5 -104t-102.5 -43h-211v-289h209v147h147v-129q0 -60 -42.5 -102.5t-102.5 -42.5h-211q-60 0 -102.5 42.5t-42.5 102.5zM125 1137l139 200h129l139 -200h-129l-75 106l-74 -106h-129z M219 545h209v338h-209v-338z" />
<glyph unicode="&#xeb;" horiz-adv-x="645" d="M74 145v721q0 60 42.5 103t102.5 43h211q60 0 102.5 -43t42.5 -103v-303q0 -61 -42.5 -104t-102.5 -43h-211v-289h209v147h147v-129q0 -60 -42.5 -102.5t-102.5 -42.5h-211q-60 0 -102.5 42.5t-42.5 102.5zM152 1137v166h129v-166h-129zM219 545h209v338h-209v-338z M381 1137v166h129v-166h-129z" />
<glyph unicode="&#xec;" horiz-adv-x="319" d="M-16 1337h157l115 -200h-133zM86 0v1012h147v-1012h-147z" />
<glyph unicode="&#xed;" horiz-adv-x="319" d="M72 1137l114 200h158l-139 -200h-133zM86 0v1012h147v-1012h-147z" />
<glyph unicode="&#xee;" horiz-adv-x="319" d="M-43 1137l139 200h129l140 -200h-129l-76 106l-74 -106h-129zM86 0v1012h147v-1012h-147z" />
<glyph unicode="&#xef;" horiz-adv-x="319" d="M-18 1137v166h129v-166h-129zM86 0v1012h147v-1012h-147zM211 1137v166h129v-166h-129z" />
<glyph unicode="&#xf0;" horiz-adv-x="657" d="M78 145v678q0 62 43 105t104 43h152l-92 198l-140 -53l-32 86l133 51l-66 146h156l43 -96l117 45l32 -86l-112 -43l149 -334q15 -34 15 -62v-678q0 -60 -42.5 -102.5t-103.5 -42.5h-209q-61 0 -104 42.5t-43 102.5zM225 127h209v715h-209v-715z" />
<glyph unicode="&#xf1;" horiz-adv-x="679" d="M86 0v1012h145v-68q39 68 125 68h97q60 0 102.5 -43t42.5 -103v-866h-147v883h-220v-883h-145zM139 1130q0 177 117 177q37 0 69 -18t59 -36t50 -18q14 0 22.5 5t12 16t4 19t0.5 23h76q0 -172 -105 -172q-40 0 -94.5 35t-89.5 35q-21 0 -31.5 -9.5t-12 -20.5t-1.5 -36 h-76z" />
<glyph unicode="&#xf2;" horiz-adv-x="649" d="M74 145v719q0 62 43 105t104 43h209q61 0 103 -43t42 -105v-719q0 -60 -42 -102.5t-103 -42.5h-209q-61 0 -104 42.5t-43 102.5zM127 1337h158l114 -200h-133zM221 127h209v756h-209v-756z" />
<glyph unicode="&#xf3;" horiz-adv-x="649" d="M74 145v719q0 62 43 105t104 43h209q61 0 103 -43t42 -105v-719q0 -60 -42 -102.5t-103 -42.5h-209q-61 0 -104 42.5t-43 102.5zM221 127h209v756h-209v-756zM233 1137l115 200h158l-139 -200h-134z" />
<glyph unicode="&#xf4;" horiz-adv-x="649" d="M74 145v719q0 62 43 105t104 43h209q61 0 103 -43t42 -105v-719q0 -60 -42 -102.5t-103 -42.5h-209q-61 0 -104 42.5t-43 102.5zM121 1137l139 200h129l139 -200h-129l-75 106l-74 -106h-129zM221 127h209v756h-209v-756z" />
<glyph unicode="&#xf5;" horiz-adv-x="649" d="M74 145v719q0 62 43 105t104 43h209q61 0 103 -43t42 -105v-719q0 -60 -42 -102.5t-103 -42.5h-209q-61 0 -104 42.5t-43 102.5zM117 1130q0 177 116 177q37 0 69.5 -18t59.5 -36t50 -18q14 0 22.5 5t12 16t4 19t0.5 23h75q0 -172 -104 -172q-40 0 -94.5 35t-89.5 35 q-21 0 -31.5 -9.5t-12 -20.5t-1.5 -36h-76zM221 127h209v756h-209v-756z" />
<glyph unicode="&#xf6;" horiz-adv-x="649" d="M74 145v719q0 62 43 105t104 43h209q61 0 103 -43t42 -105v-719q0 -60 -42 -102.5t-103 -42.5h-209q-61 0 -104 42.5t-43 102.5zM145 1137v166h129v-166h-129zM221 127h209v756h-209v-756zM375 1137v166h129v-166h-129z" />
<glyph unicode="&#xf7;" horiz-adv-x="753" d="M72 459v131h610v-131h-610zM311 199v159h131v-159h-131zM311 690v160h131v-160h-131z" />
<glyph unicode="&#xf8;" horiz-adv-x="657" d="M78 145v719q0 62 43 105t104 43h209q61 0 103.5 -43t42.5 -105v-719q0 -60 -42.5 -102.5t-103.5 -42.5h-209q-61 0 -104 42.5t-43 102.5zM225 127h209v471l-209 -418v-53zM225 397l209 414v72h-209v-486z" />
<glyph unicode="&#xf9;" horiz-adv-x="679" d="M82 145v867h147v-885h217v885h148v-1012h-129l-10 80q-36 -80 -138 -80h-90q-60 0 -102.5 42.5t-42.5 102.5zM150 1337h157l115 -200h-133z" />
<glyph unicode="&#xfa;" horiz-adv-x="679" d="M82 145v867h147v-885h217v885h148v-1012h-129l-10 80q-36 -80 -138 -80h-90q-60 0 -102.5 42.5t-42.5 102.5zM256 1137l115 200h157l-139 -200h-133z" />
<glyph unicode="&#xfb;" horiz-adv-x="679" d="M82 145v867h147v-885h217v885h148v-1012h-129l-10 80q-36 -80 -138 -80h-90q-60 0 -102.5 42.5t-42.5 102.5zM135 1137l139 200h129l140 -200h-129l-76 106l-74 -106h-129z" />
<glyph unicode="&#xfc;" horiz-adv-x="679" d="M82 145v867h147v-885h217v885h148v-1012h-129l-10 80q-36 -80 -138 -80h-90q-60 0 -102.5 42.5t-42.5 102.5zM160 1137v166h129v-166h-129zM389 1137v166h129v-166h-129z" />
<glyph unicode="&#xfd;" horiz-adv-x="661" d="M82 -59h147v-117h199v268h-199q-61 0 -104 43t-43 103v774h149v-793h197v793h147v-1170q0 -62 -42 -104.5t-103 -42.5h-201q-61 0 -104 42.5t-43 104.5v99zM250 1137l115 200h157l-139 -200h-133z" />
<glyph unicode="&#xfe;" horiz-adv-x="661" d="M86 -305v1704h147v-387h209q60 0 103 -43.5t43 -104.5v-719q0 -60 -43 -102.5t-103 -42.5h-86q-89 0 -123 66v-371h-147zM233 127h209v756h-209v-756z" />
<glyph unicode="&#xff;" horiz-adv-x="661" d="M82 -59h147v-117h199v268h-199q-61 0 -104 43t-43 103v774h149v-793h197v793h147v-1170q0 -62 -42 -104.5t-103 -42.5h-201q-61 0 -104 42.5t-43 104.5v99zM152 1137v166h129v-166h-129zM381 1137v166h129v-166h-129z" />
<glyph unicode="&#x152;" horiz-adv-x="909" d="M82 145v1059q0 60 42.5 103t102.5 43h641v-125h-274v-486h229v-127h-229v-487h274v-125h-641q-60 0 -102.5 42.5t-42.5 102.5zM233 125h211v1100h-211v-1100z" />
<glyph unicode="&#x153;" horiz-adv-x="1001" d="M74 145v719q0 62 43 105t104 43h148q45 0 81.5 -25t51.5 -65q18 40 54.5 65t80.5 25h149q60 0 103 -43t43 -103v-303q0 -61 -43 -104t-103 -43h-211v-289h209v147h148v-129q0 -60 -43 -102.5t-103 -42.5h-149q-45 0 -81 24.5t-54 63.5q-15 -39 -51.5 -63.5t-81.5 -24.5 h-148q-61 0 -104 42.5t-43 102.5zM221 127h209v756h-209v-756zM575 545h209v338h-209v-338z" />
<glyph unicode="&#x178;" horiz-adv-x="657" d="M76 145v230h149v-250h199v450h-203q-60 0 -102.5 42t-42.5 102v631h149v-650h199v650h151v-1205q0 -60 -42.5 -102.5t-102.5 -42.5h-209q-60 0 -102.5 42.5t-42.5 102.5zM152 1438v166h129v-166h-129zM381 1438v166h129v-166h-129z" />
<glyph unicode="&#x2c6;" horiz-adv-x="622" d="M104 1137l140 200h129l139 -200h-129l-76 106l-74 -106h-129z" />
<glyph unicode="&#x2dc;" horiz-adv-x="659" d="M123 1130q0 177 117 177q37 0 69 -18t59 -36t50 -18q14 0 22.5 5t12 16t4 19t0.5 23h75q0 -172 -104 -172q-40 0 -94.5 35t-89.5 35q-21 0 -31.5 -9.5t-12 -20.5t-1.5 -36h-76z" />
<glyph unicode="&#x2000;" horiz-adv-x="848" />
<glyph unicode="&#x2001;" horiz-adv-x="1696" />
<glyph unicode="&#x2002;" horiz-adv-x="848" />
<glyph unicode="&#x2003;" horiz-adv-x="1696" />
<glyph unicode="&#x2004;" horiz-adv-x="565" />
<glyph unicode="&#x2005;" horiz-adv-x="424" />
<glyph unicode="&#x2006;" horiz-adv-x="282" />
<glyph unicode="&#x2007;" horiz-adv-x="282" />
<glyph unicode="&#x2008;" horiz-adv-x="212" />
<glyph unicode="&#x2009;" horiz-adv-x="339" />
<glyph unicode="&#x200a;" horiz-adv-x="94" />
<glyph unicode="&#x2010;" horiz-adv-x="446" d="M61 520v131h324v-131h-324z" />
<glyph unicode="&#x2011;" horiz-adv-x="446" d="M61 520v131h324v-131h-324z" />
<glyph unicode="&#x2012;" horiz-adv-x="446" d="M61 520v131h324v-131h-324z" />
<glyph unicode="&#x2013;" horiz-adv-x="692" d="M61 520v131h570v-131h-570z" />
<glyph unicode="&#x2014;" horiz-adv-x="1077" d="M61 520v131h955v-131h-955z" />
<glyph unicode="&#x2018;" horiz-adv-x="313" d="M31 1350h149l82 -400h-133z" />
<glyph unicode="&#x2019;" horiz-adv-x="313" d="M51 950l82 400h150l-99 -400h-133z" />
<glyph unicode="&#x201a;" horiz-adv-x="333" d="M43 -193l82 400h149l-98 -400h-133z" />
<glyph unicode="&#x201c;" horiz-adv-x="579" d="M31 1350h149l82 -400h-133zM297 1350h149l82 -400h-133z" />
<glyph unicode="&#x201d;" horiz-adv-x="579" d="M51 950l82 400h150l-99 -400h-133zM317 950l82 400h150l-98 -400h-134z" />
<glyph unicode="&#x201e;" horiz-adv-x="600" d="M43 -193l82 400h149l-98 -400h-133zM309 -193l82 400h150l-99 -400h-133z" />
<glyph unicode="&#x2022;" horiz-adv-x="524" d="M74 516v141q0 58 40 99t97 41h102q58 0 98 -40.5t40 -99.5v-141q0 -57 -40 -97t-98 -40h-102q-57 0 -97 40t-40 97z" />
<glyph unicode="&#x2026;" horiz-adv-x="1038" d="M86 0v207h162v-207h-162zM438 0v207h162v-207h-162zM791 0v207h161v-207h-161z" />
<glyph unicode="&#x202f;" horiz-adv-x="339" />
<glyph unicode="&#x2039;" horiz-adv-x="446" d="M45 522l197 340h159l-198 -340l198 -340h-159z" />
<glyph unicode="&#x203a;" horiz-adv-x="446" d="M45 182l199 340l-199 340h160l196 -340l-196 -340h-160z" />
<glyph unicode="&#x205f;" horiz-adv-x="424" />
<glyph unicode="&#x20ac;" horiz-adv-x="684" d="M37 487v97h80v182h-80v96h80v355q0 60 42.5 102.5t102.5 42.5h221q60 0 102 -42.5t42 -102.5v-213h-150v233h-211v-375h199v-96h-199v-182h199v-97h-199v-374h211v260h150v-240q0 -60 -42 -102.5t-102 -42.5h-221q-60 0 -102.5 42.5t-42.5 102.5v354h-80z" />
<glyph unicode="&#x2122;" horiz-adv-x="1003" d="M41 1260h88v-363h111v363h88v90h-287v-90zM385 897v453h109v-58q10 29 34.5 43.5t53.5 14.5q72 0 100 -58q12 31 35.5 44.5t64.5 13.5h45q47 0 79 -33t32 -80v-340h-111v363h-112v-363h-111v363h-110v-363h-109z" />
<glyph unicode="&#xe000;" horiz-adv-x="1013" d="M0 0v1014h1014v-1014h-1014z" />
</font>
</defs>
</svg>
