<?xml version="1.0" encoding="utf-8"?>
<!-- Generator: Adobe Illustrator 16.0.4, SVG Export Plug-In . SVG Version: 6.00 Build 0)  -->
<!DOCTYPE svg PUBLIC "-//W3C//DTD SVG 1.1//EN" "http://www.w3.org/Graphics/SVG/1.1/DTD/svg11.dtd">
<svg version="1.1" id="Layer_1" xmlns="http://www.w3.org/2000/svg" xmlns:xlink="http://www.w3.org/1999/xlink" x="0px" y="0px"
	 width="154px" height="154px" viewBox="0 0 154 154" enable-background="new 0 0 154 154" xml:space="preserve">
<g>
	<path fill="#57557B" d="M150,4v146H4V4H150 M154,0H0v154h154V0L154,0z"/>
</g>
<g>
	<path fill="#B62A2A" d="M47.764,84.907c-0.919,0.919-2.007,1.379-3.264,1.379H23.607c-1.258,0-2.346-0.46-3.265-1.379
		c-0.919-0.918-1.378-2.006-1.378-3.265V35.214c0-1.257,0.459-2.345,1.378-3.264s2.007-1.379,3.265-1.379H44.5
		c1.257,0,2.345,0.46,3.264,1.379s1.379,2.007,1.379,3.264v46.429C49.143,82.901,48.683,83.989,47.764,84.907z M36.158,41.199
		c-0.92-0.895-2.008-1.342-3.265-1.342c-1.306,0-2.406,0.447-3.301,1.342c-0.896,0.896-1.342,1.995-1.342,3.301
		c0,1.258,0.446,2.347,1.342,3.265c0.895,0.919,1.995,1.378,3.301,1.378c1.257,0,2.345-0.459,3.265-1.378
		c0.918-0.918,1.378-2.007,1.378-3.265C37.536,43.194,37.076,42.095,36.158,41.199z M132.135,65.32
		c0.145-3.675-0.896-6.988-3.121-9.938c0.822-2.708,0.822-5.537,0-8.488c-0.725-2.756-2.031-5.029-3.916-6.818
		c0.436-5.416-0.75-9.794-3.555-13.131c-3.096-3.675-7.859-5.562-14.291-5.658h-2.613h-5.512h-1.234
		c-3.191,0-6.674,0.375-10.445,1.124c-3.773,0.75-6.711,1.451-8.814,2.104c-2.104,0.653-5.018,1.608-8.742,2.866
		c-5.949,2.079-9.771,3.144-11.463,3.191c-1.258,0.049-2.346,0.521-3.264,1.415c-0.92,0.896-1.379,1.971-1.379,3.228v46.502
		c0,1.209,0.436,2.261,1.306,3.154c0.871,0.896,1.91,1.392,3.12,1.488c1.16,0.098,2.998,1.523,5.513,4.279
		c2.515,2.758,4.957,5.684,7.327,8.778c3.288,4.208,5.731,7.109,7.328,8.706c0.869,0.869,1.619,2.031,2.248,3.481
		s1.053,2.623,1.27,3.519c0.219,0.895,0.545,2.357,0.98,4.389c0.338,1.887,0.641,3.361,0.906,4.426
		c0.266,1.062,0.736,2.32,1.414,3.771s1.498,2.66,2.467,3.627c0.918,0.919,2.006,1.379,3.264,1.379c2.225,0,4.221-0.254,5.986-0.762
		c1.764-0.508,3.215-1.137,4.352-1.887s2.104-1.729,2.902-2.938s1.379-2.297,1.74-3.264c0.363-0.969,0.654-2.178,0.871-3.628
		c0.219-1.45,0.338-2.539,0.363-3.265c0.023-0.725,0.035-1.668,0.035-2.829c0-1.837-0.242-3.688-0.725-5.55
		c-0.484-1.861-0.943-3.275-1.379-4.244c-0.436-0.967-1.088-2.345-1.959-4.135c-0.145-0.29-0.387-0.725-0.725-1.306
		s-0.605-1.112-0.799-1.597c-0.193-0.482-0.387-1.062-0.58-1.74h20.096c3.771,0,7.023-1.379,9.758-4.135
		c2.73-2.758,4.121-6.021,4.17-9.794c0-4.255-1.33-7.858-3.99-10.809C131.771,68.706,132.135,66.868,132.135,65.32z"/>
</g>
</svg>
