<?xml version="1.0" encoding="utf-8"?>
<!-- Generator: Adobe Illustrator 16.0.4, SVG Export Plug-In . SVG Version: 6.00 Build 0)  -->
<!DOCTYPE svg PUBLIC "-//W3C//DTD SVG 1.1//EN" "http://www.w3.org/Graphics/SVG/1.1/DTD/svg11.dtd">
<svg version="1.1" id="Layer_1" xmlns="http://www.w3.org/2000/svg" xmlns:xlink="http://www.w3.org/1999/xlink" x="0px" y="0px"
	 width="122.838px" height="122.838px" viewBox="0 0 122.838 122.838" enable-background="new 0 0 122.838 122.838"
	 xml:space="preserve">
<g>
	<defs>
		<path id="SVGID_1_" d="M111.322,73.978v29.688L65.389,57.729l45.934-45.934v29.687h11.526L122.861,0h-0.023H-0.006v122.838H0
			l41.461,0.013l0.001-11.528H11.797L57.729,65.39l45.934,45.933H73.957v11.528l48.881,0.011v-0.011h0.011v-0.013h0.013
			l-0.013-48.86H111.322z M34.658,11.469l-7.765,7.766l-7.767-7.766H34.658z M11.506,19.225l15.297,15.299l23.055-23.055h15.604
			L26.973,49.953L11.506,34.486V19.225z M27.053,80.667L11.506,65.121V49.852l15.482,15.482L73.183,19.14l7.699,7.699L27.053,80.667
			z"/>
	</defs>
	<use xlink:href="#SVGID_1_"  overflow="visible" fill="#241742"/>
	<clipPath id="SVGID_2_">
		<use xlink:href="#SVGID_1_"  overflow="visible"/>
	</clipPath>
</g>
</svg>
