<?xml version="1.0" encoding="utf-8"?>
<!-- Generator: Adobe Illustrator 16.0.4, SVG Export Plug-In . SVG Version: 6.00 Build 0)  -->
<!DOCTYPE svg PUBLIC "-//W3C//DTD SVG 1.1//EN" "http://www.w3.org/Graphics/SVG/1.1/DTD/svg11.dtd">
<svg version="1.1" id="Layer_1" xmlns="http://www.w3.org/2000/svg" xmlns:xlink="http://www.w3.org/1999/xlink" x="0px" y="0px"
	 width="9.143px" height="12.571px" viewBox="0 0 9.143 12.571" enable-background="new 0 0 9.143 12.571" xml:space="preserve">
<g>
	<path fill="#57557B" d="M9.143,4.571c0,0.155-0.057,0.289-0.17,0.402c-0.113,0.113-0.247,0.17-0.402,0.17h-8
		c-0.155,0-0.289-0.057-0.402-0.17C0.057,4.86,0,4.726,0,4.571s0.057-0.289,0.169-0.402l4-4C4.283,0.057,4.417,0,4.571,0
		S4.86,0.057,4.973,0.169l4,4C9.086,4.283,9.143,4.417,9.143,4.571z M8.973,7.598C9.086,7.711,9.143,7.845,9.143,8
		s-0.057,0.289-0.17,0.402l-4,4c-0.113,0.113-0.247,0.169-0.402,0.169s-0.289-0.057-0.402-0.169l-4-4C0.057,8.289,0,8.155,0,8
		s0.057-0.289,0.169-0.402c0.113-0.113,0.247-0.169,0.402-0.169h8C8.726,7.429,8.86,7.485,8.973,7.598z"/>
</g>
</svg>
